<?xml version="1.0" encoding="UTF-8" standalone="no"?>
<!-- Created with Inkscape (http://www.inkscape.org/) -->

<svg
   xmlns:dc="http://purl.org/dc/elements/1.1/"
   xmlns:cc="http://creativecommons.org/ns#"
   xmlns:rdf="http://www.w3.org/1999/02/22-rdf-syntax-ns#"
   xmlns:svg="http://www.w3.org/2000/svg"
   xmlns="http://www.w3.org/2000/svg"
   xmlns:sodipodi="http://sodipodi.sourceforge.net/DTD/sodipodi-0.dtd"
   xmlns:inkscape="http://www.inkscape.org/namespaces/inkscape"
   sodipodi:docname="arduinodoosje.svg"
   width="2125.9841"
   height="1062.9921"
   id="svg2"
   version="1.1"
   inkscape:version="0.48.5 r10040">
  <sodipodi:namedview
     id="base"
     pagecolor="#ffffff"
     bordercolor="#666666"
     borderopacity="1.0"
     inkscape:pageopacity="0.0"
     inkscape:pageshadow="2"
     inkscape:zoom="0.5"
     inkscape:cx="873.98972"
     inkscape:cy="360.75176"
     inkscape:document-units="mm"
     inkscape:current-layer="svg2"
     showgrid="false"
     inkscape:window-width="1680"
     inkscape:window-height="1006"
     inkscape:window-x="1778"
     inkscape:window-y="0"
     inkscape:window-maximized="0"
     units="mm"
     inkscape:snap-global="false" />
  <defs
     id="defs4" />
  <metadata
     id="metadata7">
    <rdf:RDF>
      <cc:Work
         rdf:about="">
        <dc:format>image/svg+xml</dc:format>
        <dc:type
           rdf:resource="http://purl.org/dc/dcmitype/StillImage" />
        <dc:title />
      </cc:Work>
    </rdf:RDF>
  </metadata>
  <g
     id="layer1"
     inkscape:groupmode="layer"
     inkscape:label="Layer 1"
     transform="translate(0,10.629928)" />
  <g
     id="g3076"
     inkscape:groupmode="layer"
     inkscape:label="newlayer"
     transform="translate(0,10.629928)" />
  <g
     inkscape:label="newlayer"
     inkscape:groupmode="layer"
     id="g4270" />
  <g
     id="g5205"
     inkscape:groupmode="layer"
     inkscape:label="newlayer" />
  <g
     inkscape:label="newlayer"
     inkscape:groupmode="layer"
     id="g3462" />
  <g
     id="g5830"
     inkscape:groupmode="layer"
     inkscape:label="newlayer" />
  <path
     id="path5832"
     inkscape:label="part"
     style="fill:none;stroke:#ff0000;stroke-width:0.35433072;stroke-miterlimit:4;stroke-opacity:1;stroke-dasharray:none"
     d="m 8.4234,623.39341 35.9823,0 0,-14.17323 28.6654,0 0,14.17323 35.8228,0 0,-14.17323 28.6654,0 0,14.17323 35.8228,0 0,-14.17323 28.6654,0 0,14.17323 35.8228,0 0,-14.17323 28.6654,0 0,14.17323 35.9822,0"
     inkscape:connector-curvature="0" />
  <path
     id="path5834"
     inkscape:label="part"
     style="fill:none;stroke:#ff0000;stroke-width:0.35433072;stroke-miterlimit:4;stroke-opacity:1;stroke-dasharray:none"
     d="m 302.5179,623.39341 0,21.41929 -14.1732,0 0,28.0276 14.1732,0 0,21.4193"
     inkscape:connector-curvature="0" />
  <path
     id="path5836"
     inkscape:label="part"
     style="fill:none;stroke:#ff0000;stroke-width:0.35433072;stroke-miterlimit:4;stroke-opacity:1;stroke-dasharray:none"
     d="m 302.5179,694.2596 -35.9822,0 0,14.1732 -28.6654,0 0,-14.1732 -35.8228,0 0,14.1732 -28.6654,0 0,-14.1732 -35.8228,0 0,14.1732 -28.6654,0 0,-14.1732 -35.8228,0 0,14.1732 -28.6654,0 0,-14.1732 -35.9823,0"
     inkscape:connector-curvature="0" />
  <path
     id="path5838"
     inkscape:label="part"
     style="fill:none;stroke:#ff0000;stroke-width:0.35433072;stroke-miterlimit:4;stroke-opacity:1;stroke-dasharray:none"
     d="m 8.4234,694.2596 0,-21.4193 14.1733,0 0,-28.0276 -14.1733,0 0,-21.41929"
     inkscape:connector-curvature="0" />
  <path
     id="path5840"
     inkscape:label="part"
     style="fill:none;stroke:#ff0000;stroke-width:0.35433072;stroke-miterlimit:4;stroke-opacity:1;stroke-dasharray:none"
     d="m 29.0008,145.1152 21.1004,0 0,-14.17323 28.6654,0 0,14.17323 21.1004,0"
     inkscape:connector-curvature="0" />
  <path
     id="path5842"
     inkscape:label="part"
     style="fill:none;stroke:#ff0000;stroke-width:0.35433072;stroke-miterlimit:4;stroke-opacity:1;stroke-dasharray:none"
     d="m 99.867,145.1152 0,20.21456 14.1732,0 0,28.66536 -14.1732,0 0,34.22834 14.1732,0 0,28.66536 -14.1732,0 0,34.22835 14.1732,0 0,28.66535 -14.1732,0 0,20.21457"
     inkscape:connector-curvature="0" />
  <path
     id="path5844"
     inkscape:label="part"
     style="fill:none;stroke:#ff0000;stroke-width:0.35433072;stroke-miterlimit:4;stroke-opacity:1;stroke-dasharray:none"
     d="m 99.867,339.99709 -21.1004,0 0,14.17323 -28.6654,0 0,-14.17323 -21.1004,0"
     inkscape:connector-curvature="0" />
  <path
     id="path5846"
     inkscape:label="part"
     style="fill:none;stroke:#ff0000;stroke-width:0.35433072;stroke-miterlimit:4;stroke-opacity:1;stroke-dasharray:none"
     d="m 29.0008,339.99709 0,-20.21457 -14.1732,0 0,-28.66535 14.1732,0 0,-34.22835 -14.1732,0 0,-28.66536 14.1732,0 0,-34.22834 -14.1732,0 0,-28.66536 14.1732,0 0,-20.21456"
     inkscape:connector-curvature="0" />
  <path
     id="path5848"
     inkscape:label="part"
     style="fill:none;stroke:#ff0000;stroke-width:0.35433072;stroke-miterlimit:4;stroke-opacity:1;stroke-dasharray:none"
     d="m 13.0901,369.60863 36.3012,0 0,14.17323 28.0276,0 0,-14.17323 36.4606,0 0,14.17323 28.0276,0 0,-14.17323 36.4606,0 0,14.17323 28.0276,0 0,-14.17323 36.4606,0 0,14.17323 28.0276,0 0,-14.17323 36.3011,0"
     inkscape:connector-curvature="0" />
  <path
     id="path5850"
     inkscape:label="part"
     style="fill:none;stroke:#ff0000;stroke-width:0.35433072;stroke-miterlimit:4;stroke-opacity:1;stroke-dasharray:none"
     d="m 307.1846,369.60863 0,34.70669 -14.1732,0 0,28.02756 14.1732,0 0,34.86614 -14.1732,0 0,28.02756 14.1732,0 0,34.86614 -14.1732,0 0,28.02756 14.1732,0 0,34.7067"
     inkscape:connector-curvature="0" />
  <path
     id="path5852"
     inkscape:label="part"
     style="fill:none;stroke:#ff0000;stroke-width:0.35433072;stroke-miterlimit:4;stroke-opacity:1;stroke-dasharray:none"
     d="m 307.1846,592.83698 -36.3011,0 0,-14.17323 -28.0276,0 0,14.17323 -36.4606,0 0,-14.17323 -28.0276,0 0,14.17323 -36.4606,0 0,-14.17323 -28.0276,0 0,14.17323 -36.4606,0 0,-14.17323 -28.0276,0 0,14.17323 -36.3012,0"
     inkscape:connector-curvature="0" />
  <path
     id="path5854"
     inkscape:label="part"
     style="fill:none;stroke:#ff0000;stroke-width:0.35433072;stroke-miterlimit:4;stroke-opacity:1;stroke-dasharray:none"
     d="m 13.0901,592.83698 0,-34.7067 14.1733,0 0,-28.02756 -14.1733,0 0,-34.86614 14.1733,0 0,-28.02756 -14.1733,0 0,-34.86614 14.1733,0 0,-28.02756 -14.1733,0 0,-34.70669"
     inkscape:connector-curvature="0" />
  <path
     id="path5856"
     inkscape:label="part"
     style="fill:none;stroke:#ff0000;stroke-width:0.35433072;stroke-miterlimit:4;stroke-opacity:1;stroke-dasharray:none"
     d="m 157.741,143.78186 21.1004,0 0,-14.17323 28.6653,0 0,14.17323 21.1004,0"
     inkscape:connector-curvature="0" />
  <path
     id="path5858"
     inkscape:label="part"
     style="fill:none;stroke:#ff0000;stroke-width:0.35433072;stroke-miterlimit:4;stroke-opacity:1;stroke-dasharray:none"
     d="m 228.6071,143.78186 0,20.21456 14.1733,0 0,28.66536 -14.1733,0 0,34.22834 14.1733,0 0,28.66536 -14.1733,0 0,34.22835 14.1733,0 0,28.66535 -14.1733,0 0,20.21457"
     inkscape:connector-curvature="0" />
  <path
     id="path5860"
     inkscape:label="part"
     style="fill:none;stroke:#ff0000;stroke-width:0.35433072;stroke-miterlimit:4;stroke-opacity:1;stroke-dasharray:none"
     d="m 228.6071,338.66375 -21.1004,0 0,14.17323 -28.6653,0 0,-14.17323 -21.1004,0"
     inkscape:connector-curvature="0" />
  <path
     id="path5862"
     inkscape:label="part"
     style="fill:none;stroke:#ff0000;stroke-width:0.35433072;stroke-miterlimit:4;stroke-opacity:1;stroke-dasharray:none"
     d="m 157.741,338.66375 0,-20.21457 -14.1732,0 0,-28.66535 14.1732,0 0,-34.22835 -14.1732,0 0,-28.66536 14.1732,0 0,-34.22834 -14.1732,0 0,-28.66536 14.1732,0 0,-20.21456"
     inkscape:connector-curvature="0" />
  <path
     id="path5872"
     inkscape:label="part"
     style="fill:none;stroke:#ff0000;stroke-width:0.35433072;stroke-miterlimit:4;stroke-opacity:1;stroke-dasharray:none"
     d="m 18.4234,26.85272 35.9823,0 0,-14.17322 28.6654,0 0,14.17322 35.8228,0 0,-14.17322 28.6654,0 0,14.17322 35.8228,0 0,-14.17322 28.6654,0 0,14.17322 35.8228,0 0,-14.17322 28.6654,0 0,14.17322 35.9822,0"
     inkscape:connector-curvature="0" />
  <path
     id="path5874"
     inkscape:label="part"
     style="fill:none;stroke:#ff0000;stroke-width:0.35433072;stroke-miterlimit:4;stroke-opacity:1;stroke-dasharray:none"
     d="m 312.5179,26.85272 0,21.41929 -14.1732,0 0,28.02756 14.1732,0 0,21.4193"
     inkscape:connector-curvature="0" />
  <path
     id="path5876"
     inkscape:label="part"
     style="fill:none;stroke:#ff0000;stroke-width:0.35433072;stroke-miterlimit:4;stroke-opacity:1;stroke-dasharray:none"
     d="m 312.5179,97.71887 -35.9822,0 0,14.17322 -28.6654,0 0,-14.17322 -35.8228,0 0,14.17322 -28.6654,0 0,-14.17322 -35.8228,0 0,14.17322 -28.6654,0 0,-14.17322 -35.8228,0 0,14.17322 -28.6654,0 0,-14.17322 -35.9823,0"
     inkscape:connector-curvature="0" />
  <path
     id="path5878"
     inkscape:label="part"
     style="fill:none;stroke:#ff0000;stroke-width:0.35433072;stroke-miterlimit:4;stroke-opacity:1;stroke-dasharray:none"
     d="m 18.4234,97.71887 0,-21.4193 14.1733,0 0,-28.02756 -14.1733,0 0,-21.41929"
     inkscape:connector-curvature="0" />
  <path
     sodipodi:type="arc"
     style="fill:none;stroke:#ff0000;stroke-width:0.35433072;stroke-miterlimit:4;stroke-opacity:1;stroke-dasharray:none"
     id="path5963"
     sodipodi:cx="1231.0605"
     sodipodi:cy="668.2951"
     sodipodi:rx="14.393939"
     sodipodi:ry="14.393939"
     d="m 1245.4545,668.2951 a 14.393939,14.393939 0 1 1 -28.7879,0 14.393939,14.393939 0 1 1 28.7879,0 z"
     transform="translate(-1166.6667,-487.33333)" />
  <rect
     style="fill:none;stroke:#ff0000;stroke-width:0.35433072;stroke-miterlimit:4;stroke-opacity:1;stroke-dasharray:none"
     id="rect5965"
     width="32.056248"
     height="153.20747"
     x="168.72729"
     y="167.77991" />
  <path
     inkscape:connector-curvature="0"
     d="m 13.0901,729.60863 36.3012,0 0,14.17323 28.0276,0 0,-14.17323 36.4606,0 0,14.17323 28.0276,0 0,-14.17323 36.4606,0 0,14.17323 28.0276,0 0,-14.17323 36.4606,0 0,14.17323 28.0276,0 0,-14.17323 36.3011,0"
     style="fill:none;stroke:#ff0000;stroke-width:0.35433072;stroke-miterlimit:4;stroke-opacity:1;stroke-dasharray:none"
     inkscape:label="part"
     id="path3149" />
  <path
     inkscape:connector-curvature="0"
     d="m 307.1846,729.60863 0,34.70669 -14.1732,0 0,28.02756 14.1732,0 0,34.86614 -14.1732,0 0,28.02756 14.1732,0 0,34.86614 -14.1732,0 0,28.02756 14.1732,0 0,34.7067"
     style="fill:none;stroke:#ff0000;stroke-width:0.35433072;stroke-miterlimit:4;stroke-opacity:1;stroke-dasharray:none"
     inkscape:label="part"
     id="path3151" />
  <path
     inkscape:connector-curvature="0"
     d="m 307.1846,952.83698 -36.3011,0 0,-14.17323 -28.0276,0 0,14.17323 -36.4606,0 0,-14.17323 -28.0276,0 0,14.17323 -36.4606,0 0,-14.17323 -28.0276,0 0,14.17323 -36.4606,0 0,-14.17323 -28.0276,0 0,14.17323 -36.3012,0"
     style="fill:none;stroke:#ff0000;stroke-width:0.35433072;stroke-miterlimit:4;stroke-opacity:1;stroke-dasharray:none"
     inkscape:label="part"
     id="path3153" />
  <path
     inkscape:connector-curvature="0"
     d="m 13.0901,952.83698 0,-34.7067 14.1733,0 0,-28.02756 -14.1733,0 0,-34.86614 14.1733,0 0,-28.02756 -14.1733,0 0,-34.86614 14.1733,0 0,-28.02756 -14.1733,0 0,-34.70669"
     style="fill:none;stroke:#ff0000;stroke-width:0.35433072;stroke-miterlimit:4;stroke-opacity:1;stroke-dasharray:none"
     inkscape:label="part"
     id="path3155" />
</svg>
